<?xml version="1.0" encoding="UTF-8" standalone="no"?>
<!-- Created with Inkscape (http://www.inkscape.org/) -->

<svg
   width="1920mm"
   height="1080mm"
   viewBox="0 0 1920 1080"
   version="1.1"
   id="svg1"
   xml:space="preserve"
   inkscape:version="1.4.2 (ebf0e940d0, 2025-05-08)"
   sodipodi:docname="cover.svg"
   inkscape:export-filename="cover.webp"
   inkscape:export-xdpi="96"
   inkscape:export-ydpi="96"
   xmlns:inkscape="http://www.inkscape.org/namespaces/inkscape"
   xmlns:sodipodi="http://sodipodi.sourceforge.net/DTD/sodipodi-0.dtd"
   xmlns:xlink="http://www.w3.org/1999/xlink"
   xmlns="http://www.w3.org/2000/svg"
   xmlns:svg="http://www.w3.org/2000/svg"><sodipodi:namedview
     id="namedview1"
     pagecolor="#ffffff"
     bordercolor="#000000"
     borderopacity="0.25"
     inkscape:showpageshadow="2"
     inkscape:pageopacity="0.0"
     inkscape:pagecheckerboard="0"
     inkscape:deskcolor="#d1d1d1"
     inkscape:document-units="mm"
     inkscape:zoom="0.096303968"
     inkscape:cx="3187.823"
     inkscape:cy="2102.7171"
     inkscape:window-width="1752"
     inkscape:window-height="1026"
     inkscape:window-x="0"
     inkscape:window-y="0"
     inkscape:window-maximized="1"
     inkscape:current-layer="layer1" /><defs
     id="defs1"><linearGradient
       id="linearGradient4"><stop
         style="stop-color:#ffffff;stop-opacity:1;"
         offset="0"
         id="stop3" /><stop
         style="stop-color:#000000;stop-opacity:0;"
         offset="1"
         id="stop4" /></linearGradient><linearGradient
       id="linearGradient1"><stop
         style="stop-color:#000000;stop-opacity:1;"
         offset="0"
         id="stop1" /><stop
         style="stop-color:#000000;stop-opacity:0;"
         offset="1"
         id="stop2" /></linearGradient><linearGradient
       xlink:href="#linearGradient4"
       id="linearGradient2"
       x1="64.978462"
       y1="124.27173"
       x2="128.24265"
       y2="124.27173"
       gradientUnits="userSpaceOnUse" /><linearGradient
       xlink:href="#linearGradient1"
       id="linearGradient3"
       gradientUnits="userSpaceOnUse"
       x1="64.978462"
       y1="124.27173"
       x2="128.24265"
       y2="124.27173" /></defs><g
     inkscape:label="Layer 1"
     inkscape:groupmode="layer"
     id="layer1"><rect
       style="fill:#eaeaea;fill-opacity:1;stroke:#ffffff;stroke-width:1.95"
       id="rect1"
       width="1920"
       height="1080"
       x="0"
       y="0"
       sodipodi:insensitive="true" /><text
       xml:space="preserve"
       style="font-weight:600;font-size:77.6111px;font-family:Lexend;-inkscape-font-specification:'Lexend Semi-Bold';text-align:start;writing-mode:lr-tb;direction:ltr;text-anchor:start;fill:#000000;fill-opacity:1;stroke:none;stroke-width:1.95"
       x="182.66844"
       y="323.96719"
       id="text1"><tspan
         sodipodi:role="line"
         id="tspan1"
         style="font-style:normal;font-variant:normal;font-weight:600;font-stretch:normal;font-size:77.6111px;font-family:'Fira Code';-inkscape-font-specification:'Fira Code Semi-Bold';fill:#86b300;fill-opacity:1;stroke:none;stroke-width:1.95"
         x="182.66844"
         y="323.96719"># Introduction to Markdown</tspan></text><g
       id="g4"
       transform="matrix(0.64579472,0.3752061,-0.3752061,0.64579472,493.29094,-35.530887)"><path
         style="line-height:normal;font-variant-ligatures:normal;font-variant-position:normal;font-variant-caps:normal;font-variant-numeric:normal;font-variant-alternates:normal;font-variant-east-asian:normal;font-feature-settings:normal;font-variation-settings:normal;text-indent:0;text-align:start;text-decoration-line:none;text-decoration-style:solid;text-decoration-color:#000000;text-transform:none;text-orientation:mixed;white-space:normal;shape-padding:0;shape-margin:0;inline-size:0;isolation:auto;mix-blend-mode:normal;solid-color:#000000;solid-opacity:1;stroke-width:3.96908"
         d="m 1305.8022,138.99778 c -23.1649,0 -42.1445,19.31756 -42.1445,42.39384 v 229.97657 c 0,23.07612 18.9796,42.39369 42.14,42.39369 h 413.1885 c 23.1605,0 42.1401,-19.31757 42.1401,-42.39369 V 181.39552 c 0,-23.07613 -18.9841,-42.39369 -42.1401,-42.39369 h -401.4845 l -0.01,-0.008 h -11.692 z m 0,37.87696 h 413.2125 c 2.4813,0 4.2709,1.67895 4.2709,4.52483 v 229.96862 c 0,2.84573 -1.7971,4.52467 -4.2709,4.52467 h -413.1885 c -2.4722,0 -4.2708,-1.67894 -4.2708,-4.52467 V 181.39162 c 0,-2.83793 1.7896,-4.50487 4.2468,-4.51688 z"
         color="#000000"
         font-weight="400"
         font-family="sans-serif"
         overflow="visible"
         id="path1" /><path
         d="M 1340.6141,376.15844 V 216.60136 h 46.4349 l 46.4259,58.66301 46.4109,-58.66301 h 46.4213 v 159.55708 h -46.4213 V 284.6472 l -46.4154,58.66315 -46.4304,-58.66315 v 91.51124 h -46.4214 z m 290.1558,0 -69.6373,-77.43286 h 46.4258 v -82.12422 h 46.4304 v 82.12031 h 46.4304 z m 0,0"
         id="path2"
         style="stroke-width:3.96908" /></g><text
       xml:space="preserve"
       style="font-weight:600;font-size:45.861px;font-family:Lexend;-inkscape-font-specification:'Lexend Semi-Bold';text-align:start;writing-mode:lr-tb;direction:ltr;text-anchor:start;fill:#f07171;fill-opacity:1;stroke:none;stroke-width:1.95"
       x="186.83255"
       y="529.66791"
       id="text4"><tspan
         sodipodi:role="line"
         id="tspan4"
         style="stroke-width:1.95;fill:#f07171;fill-opacity:1"
         x="186.83255"
         y="529.66791">---</tspan></text><text
       xml:space="preserve"
       style="font-weight:600;font-size:45.861px;font-family:Lexend;-inkscape-font-specification:'Lexend Semi-Bold';text-align:start;writing-mode:lr-tb;direction:ltr;text-anchor:start;fill:#000000;fill-opacity:1;stroke:none;stroke-width:1.95"
       x="187.84145"
       y="610.89111"
       id="text5"><tspan
         sodipodi:role="line"
         id="tspan5"
         style="font-style:normal;font-variant:normal;font-weight:normal;font-stretch:normal;font-size:52.9167px;font-family:'Fira Code';-inkscape-font-specification:'Fira Code';stroke-width:1.95"
         x="187.84145"
         y="610.89111"><tspan
   id="tspan22"
   style="font-style:normal;font-variant:normal;font-weight:normal;font-stretch:normal;font-family:'Fira Code';-inkscape-font-specification:'Fira Code';fill:#f3b860;fill-opacity:1">*</tspan><tspan
   style="font-style:normal;font-variant:normal;font-weight:normal;font-stretch:normal;font-family:'Fira Code';-inkscape-font-specification:'Fira Code';fill:#f07171;fill-opacity:1"
   id="tspan14"> </tspan>Easy to learn</tspan><tspan
         sodipodi:role="line"
         style="font-style:normal;font-variant:normal;font-weight:normal;font-stretch:normal;font-size:52.9167px;font-family:'Fira Code';-inkscape-font-specification:'Fira Code';stroke-width:1.95"
         x="187.84145"
         y="677.03699"
         id="tspan6"><tspan
   style="font-style:normal;font-variant:normal;font-weight:normal;font-stretch:normal;font-family:'Fira Code';-inkscape-font-specification:'Fira Code';fill:#f3b860;fill-opacity:1"
   id="tspan15">*</tspan> Easy to write</tspan><tspan
         sodipodi:role="line"
         style="stroke-width:1.95"
         x="187.84145"
         y="743.18286"
         id="tspan8"><tspan
   style="font-style:normal;font-variant:normal;font-weight:normal;font-stretch:normal;font-size:52.9167px;font-family:'Fira Code';-inkscape-font-specification:'Fira Code'"
   id="tspan9"><tspan
   style="font-style:normal;font-variant:normal;font-weight:normal;font-stretch:normal;font-family:'Fira Code';-inkscape-font-specification:'Fira Code';fill:#f3b860;fill-opacity:1"
   id="tspan16">*</tspan> Easy to read</tspan> </tspan></text><path
       id="path1-2"
       style="fill:#000000;fill-opacity:1;stroke-width:0.624809"
       d="m 1807.5362,942.32127 a 40.804335,40.555294 0 0 0 -40.8041,40.55464 40.804335,40.555294 0 0 0 19.7181,34.64579 l -0.064,0.036 c 0,0 11.3889,8.3617 26.7502,8.0417 15.3613,-0.32 43.0617,-10.476 51.3522,-32.13232 0.7779,-2.0321 2.2516,-6.3766 -0.3772,-8.96409 -1.3627,-1.34132 -2.5039,-1.62742 -3.8403,-1.62742 h -11.93 a 40.804335,40.555294 0 0 0 -40.8041,-40.55472 z m -21.9914,27.47956 h 0.2366 c 2.9647,0 5.3515,2.38678 5.3515,5.35151 v 8.96735 c 0,2.96469 -2.3868,5.35149 -5.3515,5.35149 h -0.2366 c -2.9649,0 -5.3516,-2.3868 -5.3516,-5.35149 v -8.96735 c 0,-2.96473 2.3867,-5.35151 5.3516,-5.35151 z m 19.1008,0 h 0.2358 c 2.9649,0 5.3516,2.38678 5.3516,5.35151 v 8.96735 c 0,2.96469 -2.3867,5.35149 -5.3516,5.35149 h -0.2358 c -2.9646,0 -5.3513,-2.3868 -5.3513,-5.35149 v -8.96735 c 0,-2.96473 2.3867,-5.35151 5.3513,-5.35151 z" /><text
       xml:space="preserve"
       style="font-weight:600;font-size:45.8611px;font-family:Lexend;-inkscape-font-specification:'Lexend Semi-Bold';text-align:start;writing-mode:lr-tb;direction:ltr;text-anchor:start;fill:#000000;stroke-width:1.95"
       x="184.00194"
       y="409.90741"
       id="text2"><tspan
         sodipodi:role="line"
         style="font-style:normal;font-variant:normal;font-weight:normal;font-stretch:normal;font-size:45.8611px;font-family:'Fira Code';-inkscape-font-specification:'Fira Code';fill:#86b300;fill-opacity:1;stroke-width:1.95"
         x="184.00194"
         y="409.90741"
         id="tspan3">## A <tspan
   style="font-style:normal;font-variant:normal;font-weight:bold;font-stretch:normal;font-family:'Fira Code';-inkscape-font-specification:'Fira Code Bold';fill:#f07171;fill-opacity:1"
   id="tspan12">**lightweight**</tspan> markup language for everyone.</tspan></text></g></svg>
