<svg xmlns="http://www.w3.org/2000/svg" viewBox="3.0999999046325684 12.399999618530273 262.42999267578125 30.030000686645508" data-asc="0.83251953125" width="262.42999267578125" height="30.030000686645508"><defs/><g fill="#f2ede4"><g transform="translate(0, 0)"><path d="M24.02 15.87L24.02 14.43Q24.02 13.70 24.30 13.38Q24.58 13.06 25.05 13.06Q25.51 13.06 25.79 13.38Q26.07 13.70 26.07 14.43L26.07 20.12Q26.07 20.87 25.79 21.19Q25.51 21.51 25.05 21.51Q24.63 21.51 24.35 21.22Q24.07 20.92 24.02 20.26Q23.90 18.21 21.80 16.63Q18.97 14.45 15.36 14.45Q12.99 14.45 10.89 15.50Q9.33 16.26 8.40 17.36Q6.79 19.26 5.83 21.58Q5.15 23.29 5.15 25.44L5.15 29.03Q5.15 33.62 8.47 37.00Q11.79 40.38 16.19 40.38Q18.82 40.38 20.91 39.23Q23.00 38.09 24.95 35.77Q25.37 35.25 25.88 35.25Q26.32 35.25 26.59 35.52Q26.86 35.79 26.86 36.21Q26.86 36.77 25.81 37.92Q23.80 40.16 21.30 41.30Q18.80 42.43 16.24 42.43Q14.01 42.43 11.72 41.58Q9.96 40.92 8.81 40.04Q7.67 39.16 5.99 37.07Q4.32 34.99 3.71 33.22Q3.10 31.45 3.10 29.32L3.10 25.15Q3.10 22.12 4.72 18.96Q6.35 15.80 9.17 14.10Q11.99 12.40 15.28 12.40Q20.36 12.40 24.02 15.87ZM57.54 27.42Q57.54 31.52 55.88 35.02Q54.22 38.53 51.31 40.48Q48.39 42.43 45.04 42.43Q40.09 42.43 36.32 38.22Q32.54 34.01 32.54 27.42Q32.54 20.80 36.32 16.60Q40.09 12.40 45.04 12.40Q48.39 12.40 51.29 14.36Q54.20 16.31 55.87 19.80Q57.54 23.29 57.54 27.42M55.47 27.42Q55.47 22.41 52.56 18.43Q49.66 14.45 45.04 14.45Q40.72 14.45 37.66 18.25Q34.59 22.05 34.59 27.42Q34.59 33.13 37.81 36.76Q41.02 40.38 45.04 40.38Q49.66 40.38 52.56 36.41Q55.47 32.45 55.47 27.42ZM66.97 39.58L66.97 15.11L65.23 15.11Q64.50 15.11 64.18 14.83Q63.87 14.55 63.87 14.09Q63.87 13.62 64.18 13.34Q64.50 13.06 65.23 13.06L76.27 13.06Q78.86 13.06 80.99 14.14Q83.13 15.21 84.25 16.58Q86.18 18.90 87.18 21.48Q87.89 23.36 87.89 25.93L87.89 28.76Q87.89 31.91 86.50 34.86Q85.11 37.82 81.86 40.01Q79.44 41.63 76.27 41.63L65.23 41.63Q64.50 41.63 64.18 41.33Q63.87 41.04 63.87 40.60Q63.87 40.14 64.18 39.86Q64.50 39.58 65.23 39.58L66.97 39.58M69.02 39.58L76.46 39.58Q79.05 39.58 81.31 37.89Q83.57 36.21 84.70 33.85Q85.84 31.49 85.84 29.20L85.84 25.49Q85.84 23.58 85.23 22.09Q84.35 19.92 82.74 17.97Q81.86 16.89 80.15 16.00Q78.44 15.11 76.46 15.11L69.02 15.11L69.02 39.58ZM98.34 27.83L98.34 39.58L114.11 39.58L114.11 33.52Q114.11 32.79 114.39 32.47Q114.67 32.15 115.14 32.15Q115.60 32.15 115.88 32.47Q116.16 32.79 116.16 33.52L116.16 41.63L93.53 41.63Q92.80 41.63 92.48 41.33Q92.16 41.04 92.16 40.60Q92.16 40.14 92.48 39.86Q92.80 39.58 93.53 39.58L96.29 39.58L96.29 15.11L93.53 15.11Q92.80 15.11 92.48 14.83Q92.16 14.55 92.16 14.09Q92.16 13.62 92.48 13.34Q92.80 13.06 93.53 13.06L115.09 13.06L115.09 20.12Q115.09 20.85 114.81 21.17Q114.53 21.48 114.06 21.48Q113.60 21.48 113.32 21.17Q113.04 20.85 113.04 20.12L113.04 15.11L98.34 15.11L98.34 25.78L105.69 25.78L105.69 23.46Q105.69 22.73 105.98 22.41Q106.27 22.09 106.74 22.09Q107.18 22.09 107.47 22.41Q107.76 22.73 107.76 23.46L107.76 30.15Q107.76 30.88 107.47 31.20Q107.18 31.52 106.74 31.52Q106.27 31.52 105.98 31.20Q105.69 30.88 105.69 30.15L105.69 27.83L98.34 27.83ZM136.55 41.63L133.69 41.63L123.36 15.11L121.78 15.11Q121.22 15.11 120.97 15.00Q120.73 14.89 120.57 14.64Q120.41 14.38 120.41 14.09Q120.41 13.79 120.57 13.54Q120.73 13.28 120.97 13.17Q121.22 13.06 121.78 13.06L129.42 13.06Q130.00 13.06 130.24 13.17Q130.47 13.28 130.63 13.54Q130.79 13.79 130.79 14.09Q130.79 14.38 130.62 14.64Q130.44 14.89 130.21 15.00Q129.98 15.11 129.42 15.11L125.49 15.11L135.01 39.58L135.16 39.58L144.56 15.11L140.65 15.11Q140.06 15.11 139.82 15.00Q139.58 14.89 139.42 14.64Q139.26 14.38 139.26 14.09Q139.26 13.79 139.43 13.54Q139.60 13.28 139.83 13.17Q140.06 13.06 140.65 13.06L148.27 13.06Q148.85 13.06 149.10 13.17Q149.34 13.28 149.50 13.54Q149.66 13.79 149.66 14.09Q149.66 14.38 149.49 14.64Q149.32 14.89 149.08 15.00Q148.85 15.11 148.27 15.11L146.70 15.11L136.55 41.63ZM166.06 15.11L166.06 39.58L173.10 39.58Q173.83 39.58 174.15 39.86Q174.46 40.14 174.46 40.60Q174.46 41.04 174.15 41.33Q173.83 41.63 173.10 41.63L156.98 41.63Q156.25 41.63 155.93 41.33Q155.62 41.04 155.62 40.60Q155.62 40.14 155.93 39.86Q156.25 39.58 156.98 39.58L164.01 39.58L164.01 15.11L156.98 15.11Q156.25 15.11 155.93 14.83Q155.62 14.55 155.62 14.09Q155.62 13.62 155.93 13.34Q156.25 13.06 156.98 13.06L173.10 13.06Q173.83 13.06 174.15 13.34Q174.46 13.62 174.46 14.09Q174.46 14.55 174.15 14.83Q173.83 15.11 173.10 15.11L166.06 15.11ZM186.28 39.58L186.28 15.11L183.52 15.11Q182.79 15.11 182.47 14.83Q182.15 14.55 182.15 14.09Q182.15 13.62 182.47 13.34Q182.79 13.06 183.52 13.06L196.41 13.06Q200.24 13.06 202.65 15.27Q205.05 17.48 205.05 20.46Q205.05 24.22 201.03 26.54Q204.22 27.69 205.71 29.59Q207.20 31.49 207.20 33.79Q207.20 35.84 206.23 37.54Q205.25 39.23 203.23 40.43Q201.22 41.63 198.85 41.63L183.52 41.63Q182.79 41.63 182.47 41.33Q182.15 41.04 182.15 40.60Q182.15 40.14 182.47 39.86Q182.79 39.58 183.52 39.58L186.28 39.58M188.33 25.76L195.58 25.76Q197.90 25.76 199.83 24.90Q201.32 24.22 202.15 22.92Q202.98 21.63 202.98 20.29Q202.98 18.36 201.17 16.74Q199.37 15.11 196.46 15.11L188.33 15.11L188.33 25.76M188.33 39.58L198.71 39.58Q200.68 39.58 202.15 38.70Q203.61 37.82 204.37 36.52Q205.13 35.23 205.13 33.84Q205.13 32.28 204.04 30.81Q202.95 29.35 201.03 28.59Q199.10 27.83 195.70 27.83L188.33 27.83L188.33 39.58ZM218.36 27.83L218.36 39.58L234.13 39.58L234.13 33.52Q234.13 32.79 234.41 32.47Q234.69 32.15 235.16 32.15Q235.62 32.15 235.90 32.47Q236.18 32.79 236.18 33.52L236.18 41.63L213.55 41.63Q212.82 41.63 212.50 41.33Q212.18 41.04 212.18 40.60Q212.18 40.14 212.50 39.86Q212.82 39.58 213.55 39.58L216.31 39.58L216.31 15.11L213.55 15.11Q212.82 15.11 212.50 14.83Q212.18 14.55 212.18 14.09Q212.18 13.62 212.50 13.34Q212.82 13.06 213.55 13.06L235.11 13.06L235.11 20.12Q235.11 20.85 234.83 21.17Q234.55 21.48 234.08 21.48Q233.62 21.48 233.34 21.17Q233.06 20.85 233.06 20.12L233.06 15.11L218.36 15.11L218.36 25.78L225.71 25.78L225.71 23.46Q225.71 22.73 226.00 22.41Q226.29 22.09 226.76 22.09Q227.20 22.09 227.49 22.41Q227.78 22.73 227.78 23.46L227.78 30.15Q227.78 30.88 227.49 31.20Q227.20 31.52 226.76 31.52Q226.29 31.52 226.00 31.20Q225.71 30.88 225.71 30.15L225.71 27.83L218.36 27.83ZM262.38 15.11L262.38 14.43Q262.38 13.70 262.66 13.38Q262.94 13.06 263.40 13.06Q263.87 13.06 264.15 13.38Q264.43 13.70 264.43 14.43L264.43 19.65Q264.43 20.39 264.15 20.70Q263.87 21.02 263.40 21.02Q262.96 21.02 262.68 20.73Q262.40 20.43 262.38 19.78Q262.26 17.72 260.27 16.09Q258.28 14.45 255.05 14.45Q251.66 14.45 249.66 16.20Q247.66 17.94 247.66 20.31Q247.66 21.53 248.22 22.53Q248.78 23.54 249.71 24.16Q250.63 24.78 251.81 25.16Q252.98 25.54 255.47 25.95Q259.64 26.64 261.23 27.34Q263.35 28.30 264.44 29.98Q265.53 31.67 265.53 33.96Q265.53 37.48 262.72 39.95Q259.91 42.43 255.15 42.43Q249.80 42.43 246.61 39.09L246.61 40.26Q246.61 40.99 246.33 41.31Q246.04 41.63 245.58 41.63Q245.14 41.63 244.85 41.31Q244.56 40.99 244.56 40.26L244.56 34.59Q244.56 33.84 244.84 33.52Q245.12 33.20 245.58 33.20Q246.02 33.20 246.30 33.50Q246.58 33.79 246.61 34.45Q246.73 36.69 249.01 38.54Q251.29 40.38 255.15 40.38Q259.01 40.38 261.24 38.45Q263.48 36.52 263.48 33.89Q263.48 32.28 262.62 31.02Q261.77 29.76 260.08 29.03Q258.91 28.52 255.20 27.88Q250.10 27.03 247.85 25.27Q245.61 23.51 245.61 20.26Q245.61 17.04 248.18 14.72Q250.76 12.40 254.98 12.40Q259.28 12.40 262.38 15.11Z"/></g></g></svg>