<?xml version="1.0" encoding="UTF-8" standalone="no"?>
<!-- Created with Inkscape (http://www.inkscape.org/) -->

<svg
   width="63.264179mm"
   height="53.290249mm"
   viewBox="0 0 63.264179 53.290249"
   version="1.1"
   id="svg1"
   xml:space="preserve"
   sodipodi:docname="ghostbyte_logo_black.svg"
   inkscape:version="1.4 (e7c3feb1, 2024-10-09)"
   xmlns:inkscape="http://www.inkscape.org/namespaces/inkscape"
   xmlns:sodipodi="http://sodipodi.sourceforge.net/DTD/sodipodi-0.dtd"
   xmlns:xlink="http://www.w3.org/1999/xlink"
   xmlns="http://www.w3.org/2000/svg"
   xmlns:svg="http://www.w3.org/2000/svg"><sodipodi:namedview
     id="namedview1"
     pagecolor="#ffffff"
     bordercolor="#000000"
     borderopacity="0.25"
     inkscape:showpageshadow="2"
     inkscape:pageopacity="0.0"
     inkscape:pagecheckerboard="0"
     inkscape:deskcolor="#d1d1d1"
     inkscape:document-units="mm"
     inkscape:zoom="2.7223779"
     inkscape:cx="95.137416"
     inkscape:cy="100.46364"
     inkscape:window-width="1472"
     inkscape:window-height="816"
     inkscape:window-x="0"
     inkscape:window-y="33"
     inkscape:window-maximized="1"
     inkscape:current-layer="svg1" /><defs
     id="defs1"><linearGradient
       id="linearGradient4"><stop
         style="stop-color:#ffffff;stop-opacity:1;"
         offset="0"
         id="stop3" /><stop
         style="stop-color:#000000;stop-opacity:0;"
         offset="1"
         id="stop4" /></linearGradient><linearGradient
       id="linearGradient1"><stop
         style="stop-color:#000000;stop-opacity:1;"
         offset="0"
         id="stop1" /><stop
         style="stop-color:#000000;stop-opacity:0;"
         offset="1"
         id="stop2" /></linearGradient><linearGradient
       xlink:href="#linearGradient4"
       id="linearGradient2"
       x1="64.978462"
       y1="124.27173"
       x2="128.24265"
       y2="124.27173"
       gradientUnits="userSpaceOnUse" /><linearGradient
       xlink:href="#linearGradient1"
       id="linearGradient3"
       gradientUnits="userSpaceOnUse"
       x1="64.978462"
       y1="124.27173"
       x2="128.24265"
       y2="124.27173" /></defs><g
     id="layer1"
     transform="translate(-64.978463,-97.626599)"
     style="fill:#262626;fill-opacity:1"><g
       id="g3"
       style="fill:#262626;fill-opacity:1"><path
         id="path1"
         style="fill:#262626;fill-opacity:1;stroke-width:0.399775"
         d="m 91.08643,97.626599 a 26.108047,25.948702 0 0 0 -26.107967,25.948291 26.108047,25.948702 0 0 0 12.616284,22.16764 l -0.04134,0.0233 c 0,0 7.287076,5.35019 17.115751,5.14542 9.828672,-0.20476 27.552412,-6.70292 32.856912,-20.55947 0.49775,-1.30023 1.44064,-4.07996 -0.24133,-5.73556 -0.8719,-0.85823 -1.60205,-1.04128 -2.45722,-1.04128 H 117.1944 A 26.108047,25.948702 0 0 0 91.08643,97.626599 Z M 77.015454,115.20899 h 0.151412 c 1.896924,0 3.424081,1.52715 3.424081,3.42408 v 5.73763 c 0,1.89693 -1.527157,3.42408 -3.424081,3.42408 h -0.151412 c -1.896924,0 -3.42408,-1.52715 -3.42408,-3.42408 v -5.73763 c 0,-1.89693 1.527156,-3.42408 3.42408,-3.42408 z m 12.221477,0 h 0.150895 c 1.896923,0 3.42408,1.52715 3.42408,3.42408 v 5.73763 c 0,1.89693 -1.527157,3.42408 -3.42408,3.42408 h -0.150895 c -1.896924,0 -3.424081,-1.52715 -3.424081,-3.42408 v -5.73763 c 0,-1.89693 1.527157,-3.42408 3.424081,-3.42408 z" /></g></g></svg>
