<?xml version="1.0" encoding="UTF-8" standalone="no"?>
<!-- Created with Inkscape (http://www.inkscape.org/) -->

<svg
   width="304.1452mm"
   height="38.149609mm"
   viewBox="0 0 304.14521 38.149609"
   version="1.1"
   id="svg1"
   sodipodi:docname="ghostbyte_text.svg"
   inkscape:version="1.4 (e7c3feb1, 2024-10-09)"
   xmlns:inkscape="http://www.inkscape.org/namespaces/inkscape"
   xmlns:sodipodi="http://sodipodi.sourceforge.net/DTD/sodipodi-0.dtd"
   xmlns="http://www.w3.org/2000/svg"
   xmlns:svg="http://www.w3.org/2000/svg">
  <sodipodi:namedview
     id="namedview1"
     pagecolor="#ffffff"
     bordercolor="#000000"
     borderopacity="0.25"
     inkscape:showpageshadow="2"
     inkscape:pageopacity="0.0"
     inkscape:pagecheckerboard="0"
     inkscape:deskcolor="#d1d1d1"
     inkscape:document-units="mm"
     inkscape:zoom="0.59193825"
     inkscape:cx="364.90292"
     inkscape:cy="-49.836279"
     inkscape:window-width="1472"
     inkscape:window-height="816"
     inkscape:window-x="0"
     inkscape:window-y="33"
     inkscape:window-maximized="1"
     inkscape:current-layer="layer1" />
  <defs
     id="defs1" />
  <g
     inkscape:label="Layer 1"
     inkscape:groupmode="layer"
     id="layer1"
     transform="translate(-46.318387,-110.77885)">
    <path
       style="font-weight:bold;font-size:50.8px;font-family:Inter;-inkscape-font-specification:'Inter Bold';letter-spacing:0px;fill:#f2ede4;stroke-width:2.406"
       d="m 63.90491,148.92846 q -5.233789,0 -9.202539,-2.38125 -3.943945,-2.38125 -6.176367,-6.67246 -2.207617,-4.29121 -2.207617,-9.99629 0,-5.90352 2.282031,-10.19473 2.282031,-4.29121 6.250781,-6.59805 3.96875,-2.30683 8.929688,-2.30683 3.175,0 5.977929,0.94258 2.80293,0.91777 4.960938,2.6541 2.182812,1.71152 3.571875,4.09277 1.389062,2.38125 1.736328,5.2834 h -7.739063 q -0.322461,-1.41387 -1.016992,-2.55488 -0.694531,-1.16582 -1.785937,-1.98438 -1.066602,-0.81855 -2.455664,-1.24023 -1.364258,-0.44649 -3.026172,-0.44649 -3.100586,0 -5.357813,1.51309 -2.232422,1.48828 -3.447851,4.26641 -1.190625,2.75332 -1.190625,6.57324 0,3.79512 1.215429,6.54844 1.21543,2.75332 3.472657,4.2664 2.257226,1.48828 5.407421,1.48828 2.579688,0 4.539258,-0.96738 1.959571,-0.99219 3.050977,-2.75332 1.116211,-1.78594 1.116211,-4.11758 l 1.810742,0.14883 h -9.872266 v -5.8043 h 15.527734 v 4.71289 q 0,4.58887 -2.108398,8.08633 -2.083594,3.49746 -5.779492,5.48184 -3.695898,1.95957 -8.483203,1.95957 z m 20.984767,-0.59531 v -36.95899 h 7.639843 v 14.8332 h 15.70137 v -14.8332 h 7.61504 v 36.95899 h -7.61504 V 132.7558 H 92.52952 v 15.57735 z m 52.709963,0.59531 q -4.96094,0 -8.90488,-2.30684 -3.94395,-2.33164 -6.22598,-6.59805 -2.28203,-4.29121 -2.28203,-10.14511 0,-5.90352 2.28203,-10.16992 2.28203,-4.29121 6.22598,-6.59805 3.94394,-2.33164 8.90488,-2.33164 4.98574,0 8.92969,2.33164 3.94394,2.30684 6.22597,6.59805 2.28203,4.2664 2.28203,10.16992 0,5.87871 -2.28203,10.14511 -2.28203,4.26641 -6.22597,6.59805 -3.94395,2.30684 -8.92969,2.30684 z m 0,-6.74688 q 2.85254,0 5.06016,-1.43867 2.20761,-1.43867 3.44785,-4.19199 1.24023,-2.75332 1.24023,-6.67246 0,-3.94395 -1.24023,-6.69727 -1.24024,-2.77812 -3.44785,-4.21679 -2.20762,-1.43868 -5.06016,-1.43868 -2.82773,0 -5.03535,1.43868 -2.18281,1.43867 -3.44785,4.21679 -1.24024,2.75332 -1.24024,6.69727 0,3.91914 1.24024,6.67246 1.26504,2.75332 3.44785,4.19199 2.20762,1.43867 5.03535,1.43867 z m 35.74355,6.74688 q -4.7377,0 -8.08633,-1.48828 -3.34864,-1.51309 -5.13457,-4.36563 -1.78594,-2.85254 -1.78594,-6.8709 h 7.36699 q 0.0496,2.03399 0.96738,3.47266 0.94258,1.43867 2.65411,2.20762 1.71152,0.76894 4.06796,0.76894 2.13321,0 3.6959,-0.57051 1.5875,-0.59531 2.45567,-1.66191 0.89297,-1.0666 0.89297,-2.50527 0,-1.19063 -0.69454,-2.05879 -0.66972,-0.89297 -2.1332,-1.5627 -1.43867,-0.66972 -3.79512,-1.16582 l -3.89433,-0.84336 q -5.50664,-1.19062 -8.18555,-3.74551 -2.6789,-2.55488 -2.6789,-6.52363 0,-3.37344 1.76113,-5.87871 1.76113,-2.53008 4.91133,-3.94394 3.175,-1.41387 7.36699,-1.41387 4.2416,0 7.34219,1.43867 3.10058,1.43867 4.8121,4.11758 1.73633,2.6541 1.86036,6.3748 h -7.14375 q -0.19844,-2.62929 -2.03399,-4.14238 -1.83554,-1.51309 -4.81211,-1.51309 -1.86035,0 -3.32383,0.59532 -1.43867,0.5705 -2.28203,1.6123 -0.81855,1.0418 -0.81855,2.38125 0,1.14102 0.64492,1.98438 0.64492,0.81855 2.05879,1.43867 1.41387,0.62012 3.67109,1.11621 l 3.54707,0.76894 q 2.95176,0.64493 5.10977,1.5875 2.15801,0.91778 3.54707,2.20762 1.38906,1.26504 2.05879,2.92696 0.66973,1.66191 0.66973,3.7455 0,3.54707 -1.78594,6.15157 -1.76113,2.57968 -5.06016,3.96875 -3.27422,1.38906 -7.81347,1.38906 z m 16.63406,-31.00586 v -6.54844 h 30.03848 v 6.54844 h -11.18692 v 30.41055 h -7.63984 V 117.9226 Z m 33.90801,30.41055 v -36.95899 h 14.8084 q 3.96875,0 6.74688,1.19063 2.80293,1.19062 4.2416,3.32382 1.43867,2.13321 1.43867,4.98575 0,2.1332 -0.81856,3.79511 -0.79375,1.63711 -2.28203,2.72852 -1.48828,1.09141 -3.52226,1.6123 v 0.0496 q 2.25722,0.19844 4.06797,1.31465 1.81074,1.09141 2.85254,3.00137 1.0666,1.90996 1.0666,4.53926 0,3.07578 -1.48828,5.43222 -1.46348,2.35645 -4.36563,3.6711 -2.90215,1.31465 -7.09414,1.31465 z m 7.46621,-6.00274 h 7.11895 q 2.95176,0 4.58887,-1.26504 1.63711,-1.26504 1.63711,-3.57187 0,-1.53789 -0.71934,-2.6541 -0.71934,-1.14102 -2.08359,-1.73633 -1.36426,-0.62012 -3.29903,-0.62012 h -7.24297 z m 0,-15.60215 h 6.77168 q 1.68672,0 2.87735,-0.57051 1.21543,-0.5705 1.86035,-1.6123 0.66973,-1.0666 0.66973,-2.48047 0,-2.15801 -1.43868,-3.42305 -1.43867,-1.26503 -3.96875,-1.26503 h -6.77168 z m 36.43809,21.60489 v -13.81622 l -13.69219,-23.14277 h 8.75606 l 6.27558,11.0877 q 0.86817,1.53789 1.66192,3.05097 0.81855,1.51309 1.6123,3.02617 h -1.66191 q 0.76894,-1.51308 1.53789,-3.02617 0.79375,-1.51308 1.63711,-3.05097 l 6.07715,-11.0877 h 8.70644 l -13.46894,23.14277 v 13.81622 z m 22.24979,-30.41055 v -6.54844 h 30.03848 v 6.54844 h -11.18692 v 30.41055 h -7.63984 V 117.9226 Z m 33.90802,30.41055 v -36.95899 h 26.51621 v 6.54844 h -18.87637 v 8.55762 h 17.4625 v 6.3748 h -17.4625 v 8.92969 h 18.87637 v 6.54844 z"
       id="text1"
       aria-label="GHOSTBYTE" />
  </g>
</svg>
