<?xml version="1.0" encoding="UTF-8" standalone="no"?>
<!-- Created with Inkscape (http://www.inkscape.org/) -->

<svg
   width="86.448982mm"
   height="120.14253mm"
   viewBox="0 0 86.448982 120.14253"
   version="1.1"
   id="svg1"
   xml:space="preserve"
   inkscape:version="1.4 (e7c3feb1, 2024-10-09)"
   sodipodi:docname="marker.svg"
   xmlns:inkscape="http://www.inkscape.org/namespaces/inkscape"
   xmlns:sodipodi="http://sodipodi.sourceforge.net/DTD/sodipodi-0.dtd"
   xmlns:xlink="http://www.w3.org/1999/xlink"
   xmlns="http://www.w3.org/2000/svg"
   xmlns:svg="http://www.w3.org/2000/svg"><sodipodi:namedview
     id="namedview1"
     pagecolor="#ffffff"
     bordercolor="#000000"
     borderopacity="0.25"
     inkscape:showpageshadow="2"
     inkscape:pageopacity="0.0"
     inkscape:pagecheckerboard="0"
     inkscape:deskcolor="#d1d1d1"
     inkscape:document-units="mm"
     inkscape:zoom="1.3772587"
     inkscape:cx="59.53856"
     inkscape:cy="230.5304"
     inkscape:window-width="1472"
     inkscape:window-height="816"
     inkscape:window-x="0"
     inkscape:window-y="33"
     inkscape:window-maximized="1"
     inkscape:current-layer="layer1" /><defs
     id="defs1"><linearGradient
       id="linearGradient2"
       inkscape:collect="always"><stop
         style="stop-color:#8200da;stop-opacity:1;"
         offset="0"
         id="stop2" /><stop
         style="stop-color:#0092b8;stop-opacity:1;"
         offset="1"
         id="stop3" /></linearGradient><linearGradient
       inkscape:collect="always"
       xlink:href="#linearGradient2"
       id="linearGradient3"
       x1="53.128525"
       y1="207.78732"
       x2="144.20605"
       y2="82.414619"
       gradientUnits="userSpaceOnUse" /><linearGradient
       id="linearGradient4"><stop
         style="stop-color:#ffffff;stop-opacity:1;"
         offset="0"
         id="stop3-5" /><stop
         style="stop-color:#000000;stop-opacity:0;"
         offset="1"
         id="stop4" /></linearGradient><linearGradient
       id="linearGradient1"><stop
         style="stop-color:#000000;stop-opacity:1;"
         offset="0"
         id="stop1" /><stop
         style="stop-color:#000000;stop-opacity:0;"
         offset="1"
         id="stop2-3" /></linearGradient><linearGradient
       xlink:href="#linearGradient4"
       id="linearGradient2-5"
       x1="64.978462"
       y1="124.27173"
       x2="128.24265"
       y2="124.27173"
       gradientUnits="userSpaceOnUse" /><linearGradient
       xlink:href="#linearGradient1"
       id="linearGradient3-6"
       gradientUnits="userSpaceOnUse"
       x1="64.978462"
       y1="124.27173"
       x2="128.24265"
       y2="124.27173" /></defs><g
     inkscape:label="Layer 1"
     inkscape:groupmode="layer"
     id="layer1"
     transform="translate(-61.775557,-75.690987)"><circle
       style="fill:#262626;fill-opacity:1;stroke-width:1.95"
       id="path3"
       cx="105.00005"
       cy="121.62062"
       r="39.206001" /><path
       id="path1"
       style="fill:#f2ede4;fill-opacity:1;stroke-width:1.95"
       d="m 104.99979,75.690987 c -23.872198,-1e-6 -43.224233,19.35204 -43.224233,43.224233 2e-6,23.87221 26.491264,76.9183 43.224233,76.9183 16.73298,0 43.22475,-53.04609 43.22475,-76.9183 0,-23.872193 -19.35255,-43.224234 -43.22475,-43.224233 z m 0,10.688237 a 33.704517,33.704517 0 0 1 33.70492,33.704406 33.704517,33.704517 0 0 1 -33.70492,33.7044 33.704517,33.704517 0 0 1 -33.7044,-33.7044 33.704517,33.704517 0 0 1 33.7044,-33.704406 z m -3.44216,12.177034 a 21.093328,20.964588 0 0 0 -21.093291,20.964612 21.093328,20.964588 0 0 0 10.193176,17.9095 l -0.03359,0.0191 c 0,0 5.887795,4.3223 13.828615,4.15685 7.94084,-0.16541 22.26002,-5.41531 26.54567,-16.61035 0.40213,-1.05049 1.16409,-3.29622 -0.19482,-4.63383 -0.70441,-0.69338 -1.29449,-0.84129 -1.98541,-0.84129 h -6.16707 A 21.093328,20.964588 0 0 0 101.55763,98.556258 Z M 90.189327,112.76159 H 90.3118 c 1.532577,0 2.76624,1.23419 2.76624,2.76676 v 4.63537 c 0,1.53257 -1.233663,2.76624 -2.76624,2.76624 h -0.122473 c -1.532568,0 -2.766239,-1.23367 -2.766239,-2.76624 v -4.63537 c 0,-1.53257 1.233671,-2.76676 2.766239,-2.76676 z m 9.874333,0 h 0.12196 c 1.53257,0 2.76624,1.23419 2.76624,2.76676 v 4.63537 c 0,1.53257 -1.23367,2.76624 -2.76624,2.76624 h -0.12196 c -1.53258,0 -2.766757,-1.23367 -2.766757,-2.76624 v -4.63537 c 0,-1.53257 1.234177,-2.76676 2.766757,-2.76676 z" /></g></svg>
