<?xml version="1.0" encoding="UTF-8" standalone="no"?>
<!-- Created with Inkscape (http://www.inkscape.org/) -->

<svg
   width="115.46136mm"
   height="115.46136mm"
   viewBox="0 0 115.46136 115.46136"
   version="1.1"
   id="svg1"
   xml:space="preserve"
   inkscape:version="1.4.2 (ebf0e940d0, 2025-05-08)"
   sodipodi:docname="github_release_stats_logo.svg"
   xmlns:inkscape="http://www.inkscape.org/namespaces/inkscape"
   xmlns:sodipodi="http://sodipodi.sourceforge.net/DTD/sodipodi-0.dtd"
   xmlns="http://www.w3.org/2000/svg"
   xmlns:svg="http://www.w3.org/2000/svg"><sodipodi:namedview
     id="namedview1"
     pagecolor="#ffffff"
     bordercolor="#000000"
     borderopacity="0.25"
     inkscape:showpageshadow="2"
     inkscape:pageopacity="0.0"
     inkscape:pagecheckerboard="0"
     inkscape:deskcolor="#d1d1d1"
     inkscape:document-units="mm"
     inkscape:zoom="0.76078844"
     inkscape:cx="314.80499"
     inkscape:cy="266.82845"
     inkscape:window-width="1920"
     inkscape:window-height="1011"
     inkscape:window-x="0"
     inkscape:window-y="0"
     inkscape:window-maximized="1"
     inkscape:current-layer="layer1" /><defs
     id="defs1" /><g
     inkscape:label="Layer 1"
     inkscape:groupmode="layer"
     id="layer1"
     transform="translate(-21.909836,-77.901642)"><rect
       style="fill:#0d1117;stroke-width:0.291042;fill-opacity:1"
       id="rect2"
       width="115.46118"
       height="115.46117"
       x="21.909836"
       y="77.901642" /><path
       id="rect1"
       style="fill:#3eb84f;stroke-width:0.291042;fill-opacity:1"
       d="M 21.909836 77.901642 L 21.909836 193.36281 L 137.37101 193.36281 L 137.37101 77.901642 L 21.909836 77.901642 z M 77.555535 102.27121 L 81.725823 102.27121 C 84.027737 102.27121 85.895594 104.13959 85.895594 106.4415 L 85.895594 164.82347 C 85.895594 167.12538 84.027737 168.99324 81.725823 168.99324 L 77.555535 168.99324 C 75.253618 168.99324 73.385247 167.12538 73.385247 164.82347 L 73.385247 106.4415 C 73.385247 104.13959 75.253618 102.27121 77.555535 102.27121 z M 56.704611 121.03699 L 60.874899 121.03699 C 63.176816 121.03699 65.045188 122.90485 65.045188 125.20676 L 65.045188 164.82347 C 65.045188 167.12538 63.176816 168.99324 60.874899 168.99324 L 56.704611 168.99324 C 54.402694 168.99324 52.53484 167.12538 52.53484 164.82347 L 52.53484 125.20676 C 52.53484 122.90485 54.402694 121.03699 56.704611 121.03699 z M 98.405942 135.63249 L 102.57623 135.63249 C 104.87815 135.63249 106.74652 137.50034 106.74652 139.80226 L 106.74652 164.82347 C 106.74652 167.12538 104.87815 168.99324 102.57623 168.99324 L 98.405942 168.99324 C 96.10402 168.99324 94.236171 167.12538 94.236171 164.82347 L 94.236171 139.80226 C 94.236171 137.50034 96.10402 135.63249 98.405942 135.63249 z " /></g></svg>
